<svg xmlns="http://www.w3.org/2000/svg" viewBox="0 0 256 256" role="img" aria-label="FireCheckpoint icon">
  <defs>
    <linearGradient id="shieldBorder" x1="0" x2="1" y1="0" y2="1">
      <stop offset="0" stop-color="#c9d5e3" />
      <stop offset="1" stop-color="#e8eef6" />
    </linearGradient>
    <linearGradient id="shieldInner" x1="0" x2="1" y1="0" y2="1">
      <stop offset="0" stop-color="#123a59" />
      <stop offset="1" stop-color="#0f2f4a" />
    </linearGradient>
    <linearGradient id="shieldFace" x1="0" x2="1" y1="0" y2="1">
      <stop offset="0" stop-color="#ffd45c" />
      <stop offset="1" stop-color="#fbbf24" />
    </linearGradient>
    <linearGradient id="flame" x1="0" x2="0" y1="0" y2="1">
      <stop offset="0" stop-color="#ffb703" />
      <stop offset="1" stop-color="#fb923c" />
    </linearGradient>
  </defs>

  <circle cx="128" cy="128" r="110" fill="#dbe7f6" />

  <path d="M128 32l84 30v66c0 62-43 102-84 124-41-22-84-62-84-124V62z" fill="url(#shieldBorder)" />
  <path d="M128 44l72 26v58c0 52-36 86-72 106-36-20-72-54-72-106V70z" fill="url(#shieldInner)" />
  <path d="M128 56l64 22v48c0 44-30 74-64 92-34-18-64-48-64-92V78z" fill="url(#shieldFace)" />

  <path d="M128 84c10 20 28 34 28 58 0 20-14 36-28 36s-28-16-28-36c0-14 6-26 14-38-4 2-8 4-14 10 2-18 12-26 28-30z" fill="url(#flame)" />
  <path d="M128 110c8 12 14 18 14 30 0 10-6 18-14 18s-14-8-14-18c0-8 4-14 8-20-2 2-4 4-8 8 2-10 6-14 14-18z" fill="#ffd166" />

  <path d="M96 176h64l-32 24z" fill="#0f2f4a" />
  <rect x="118" y="180" width="20" height="12" rx="4" fill="#f8fafc" />
</svg>
